Patient4_TMGait_0pt6_02_right_19_EMG.mot
version=1
nRows=16
nColumns=33
inDegrees=no
endheader
time	1LAddLong	2LGlutMax	3LGlutMed	4LIliopsoas	5LSemiMemb	6LBicFemLong	7LRecFem	8LVastMed	9LVastLat	10LGasMed	11LTibAnt	12lTibPost	13LPeroneusLong	14LSol	15LExtDigLong	16LFlexDigLong	17RAddLong	18RGlutMax	19RGlutMed	20RIliopsoas	21RSemiMemb	22RBicFemLong	23RRecFem	24RVastMed	25RVastLat	26RGasMed	27RTibAnt	28RTibPost	29RPeroneusLong	30RSol	31RExtDigLong	32RFlexDigLong
23.157	0.001068	-0.11093	-0.18539	0.005493	0.009613	-0.043945	0.062103	0.005341	0.10483	-0.13397	-0.000763	0.007629	0.19928	0.22293	0.22339	0.010376	-0.11017	-1.6924	-0.37354	-0.04776	0.36987	0.21576	0.11963	0.15701	-0.1471	0.000153	0.083923	0.14358	-0.12787	-0.56869	-0.005493	-0.006714
23.158	-0.003815	-0.09079	-0.17777	-0.008087	0.009308	-0.04425	0.1178	0.009918	0.092926	-0.11688	-0.10605	0.004425	0.1152	0.21149	-0.71121	0.01236	-0.080719	-1.7783	-0.38574	-0.045929	0.30228	0.12253	0.14175	0.17517	-0.13199	0.047913	-0.051575	-0.16037	0.41412	-0.70526	-0.001831	-0.018768
23.159	-0.013123	-0.025177	-0.15137	-0.023193	0.010681	-0.027924	0.20325	0.010071	0.075989	-0.1265	-0.45853	0.005341	0.040741	0.10956	-1.2759	0.001221	-0.050812	-1.9138	-0.73807	-0.039063	0.16968	0.001068	0.15991	0.11704	-0.12421	-0.069427	-0.068512	-0.30777	0.51453	-1.1725	0.001831	-0.027008
23.16	-0.01358	0.026855	-0.12222	0.011139	0.014648	-0.025024	0.26108	0.007935	0.052185	-0.092163	-0.29709	0.005951	-0.048828	-0.019531	-0.89768	-0.00351	-0.027466	-1.8883	-0.25864	-0.053406	0.016174	-0.025787	0.2092	-0.010986	-0.13473	-0.093994	-0.080109	0.30121	0.78064	-0.80276	0.000305	-0.036011
23.161	-0.011597	0.086975	-0.13016	0.000153	-0.001526	-0.057526	0.2977	0.000916	0.037384	-0.039978	-0.21454	-0.006104	-0.075378	-0.17929	-0.84656	-0.004578	-0.031738	-1.9179	0.09201	-0.007782	-0.11749	0.057068	0.24933	-0.000916	-0.11597	0.007782	0.020599	-0.032806	0.39352	-0.28931	0.001221	-0.040436
23.162	-0.012665	0.16647	-0.20874	-0.018768	-0.000458	-0.030518	0.36774	-0.001068	-0.001068	-0.011597	-0.28046	0.001068	-0.10315	-0.21027	-0.015106	0.000458	-0.039673	-1.9708	0.011444	0.035095	-0.081482	0.10101	0.28091	0.067139	-0.098267	0.044098	0.081482	0.36789	0.27603	0.16922	0.002594	-0.042114
23.163	-0.012207	0.22842	-0.21896	0.004578	0.006104	-0.02655	0.48157	0.00885	-0.014648	-0.030823	-0.1709	0.00061	-0.1149	-0.075989	0.16647	0.00473	-0.014496	-1.9864	-0.16617	0.002289	0.091858	0.033875	0.34805	-0.065613	-0.091553	0.01297	0.11246	0.27512	0.098267	0.83969	0.000763	-0.022888
23.164	-0.016022	0.32669	-0.17868	0.031586	-0.001678	-0.014191	0.62698	0.012054	-0.040741	-0.050507	-0.15732	0.002899	-0.11047	0.023804	0.73791	0.014191	0.023193	-2.0612	-0.24262	-0.012207	0.14084	-0.12924	0.5307	-0.12924	-0.10651	0.032806	0.12695	0.046082	0.021515	1.2469	-0.00061	-0.016785
23.165	-0.018005	0.40161	-0.15884	0.043335	0.000458	-0.026398	0.6752	0.012054	-0.047913	-0.060425	0.11688	0.003052	-0.1059	-0.025024	0.59601	0.019836	0.043488	-2.081	-0.12924	0.12177	0.18509	-0.22934	0.76035	-0.1178	-0.13916	0.018616	0.089417	-0.033112	0.28336	0.42206	0.002899	-0.017395
23.166	-0.016785	0.53177	-0.15793	0.032196	-0.00885	-0.020752	0.62012	0.011139	-0.051117	-0.084991	0.069885	0.006714	-0.061188	-0.00824	0.024261	0.023804	0.032959	-2.0837	-0.50308	0.1239	0.18555	-0.18784	0.90546	-0.094757	-0.14389	0.023804	0.033569	-0.011444	0.41122	-0.083771	-0.001678	-0.014648
23.167	-0.008698	0.69168	-0.16037	-0.002441	0.00946	-0.040894	0.5011	0.011902	-0.068207	-0.075531	-0.13702	-0.002136	-0.036163	-0.066833	-0.30411	0.00351	0.005646	-2.07	-0.78842	0.039368	-0.059814	-0.14587	1.0004	-0.018005	-0.12512	0.028992	-0.020905	-0.099335	0.42877	0.13947	0.000305	-0.006409
23.168	-0.006104	0.82748	-0.13641	0.013275	0.009155	-0.05127	0.45273	0.016479	-0.06485	-0.06485	-0.11536	0.003052	0.007782	-0.039063	-0.33508	0.004272	-0.008545	-2.0598	0.11459	-0.098419	0.015717	-0.18982	0.96924	0.018005	-0.08316	-0.058441	0.041962	0.040436	0.16068	0.24857	0.000305	-0.015869
23.169	-0.014038	0.95032	-0.13596	-0.01709	0.010376	-0.029755	0.37582	0.014191	-0.07431	-0.044556	-0.029755	0.002441	-0.02594	-0.071869	-0.1796	-0.007477	0.003204	-2.0937	0.47607	-0.14358	0.024872	-0.19211	0.79788	-0.071259	-0.15625	-0.079956	0.14236	0.033112	-0.027161	0.32791	0.004272	-0.01236
23.17	-0.015411	0.9964	-0.12558	-0.026398	0.001831	-0.033264	0.38071	0.012207	-0.065765	-0.031738	-0.039978	0.006256	-0.065002	-0.087891	0.088501	-0.006409	0.016632	-2.2031	-0.38711	-0.13519	-0.084381	-0.18616	0.37643	-0.042114	-0.059814	-0.016937	0.24902	-0.035553	-0.050049	0.22095	-0.001678	-0.015564
23.171	-0.01236	1.0777	-0.11673	-0.019379	-0.002441	-0.035553	0.19333	0.011444	-0.040894	-0.028839	-0.12161	0.004272	-0.031586	-0.20081	-0.12909	-0.001678	0.03006	-2.1378	-0.092163	-0.23377	-0.2063	-0.027313	0.036469	-0.000458	0.121	-0.001831	0.38574	-0.039215	-0.11459	0.3273	-0.003052	0.000153
23.172	-0.016174	1.2212	-0.11032	-0.001984	0.005341	-0.03479	-0.054626	0.017853	-0.042419	-0.040283	0.068207	-0.001221	-0.023804	-0.28458	-0.10147	0.000305	0.046692	-2.0763	0.14297	-0.25238	-0.1622	0.19028	0.2475	-0.10284	0.003662	0.019379	0.57831	0.004272	-0.22385	0.59052	-0.001678	-0.005035
